<mxfile host="app.diagrams.net" agent="Mozilla/5.0 (Windows NT 10.0; Win64; x64) AppleWebKit/537.36 (KHTML, like Gecko) Chrome/131.0.0.0 Safari/537.36" version="26.0.5">
  <diagram name="Page-1" id="e7e014a7-5840-1c2e-5031-d8a46d1fe8dd">
    <mxGraphModel dx="1678" dy="1477" grid="1" gridSize="10" guides="1" tooltips="1" connect="1" arrows="1" fold="1" page="1" pageScale="1" pageWidth="1169" pageHeight="826" background="none" math="0" shadow="0">
      <root>
        <mxCell id="0" />
        <mxCell id="1" parent="0" />
        <mxCell id="IJsiVHuRIFzoJG3t3eIb-42" value="swimlane" style="swimlane;html=1;startSize=20;movable=0;resizable=0;rotatable=0;deletable=0;editable=0;locked=1;connectable=0;" vertex="1" parent="1">
          <mxGeometry x="640" y="-660" width="320" height="1020" as="geometry" />
        </mxCell>
        <mxCell id="IJsiVHuRIFzoJG3t3eIb-66" value="Prepare la facture pour la&amp;nbsp;" style="html=1;align=center;verticalAlign=top;rounded=1;absoluteArcSize=1;arcSize=10;dashed=0;" vertex="1" parent="IJsiVHuRIFzoJG3t3eIb-42">
          <mxGeometry x="100" y="780" width="180" height="40" as="geometry" />
        </mxCell>
        <mxCell id="IJsiVHuRIFzoJG3t3eIb-43" value="swimlane" style="swimlane;html=1;startSize=20;movable=1;resizable=1;rotatable=1;deletable=1;editable=1;locked=0;connectable=1;" vertex="1" parent="1">
          <mxGeometry x="260" y="-660" width="380" height="1020" as="geometry" />
        </mxCell>
        <mxCell id="IJsiVHuRIFzoJG3t3eIb-69" style="edgeStyle=orthogonalEdgeStyle;rounded=0;orthogonalLoop=1;jettySize=auto;html=1;exitX=0.5;exitY=1;exitDx=0;exitDy=0;" edge="1" parent="IJsiVHuRIFzoJG3t3eIb-43" source="IJsiVHuRIFzoJG3t3eIb-52">
          <mxGeometry relative="1" as="geometry">
            <mxPoint x="160" y="140" as="targetPoint" />
          </mxGeometry>
        </mxCell>
        <mxCell id="IJsiVHuRIFzoJG3t3eIb-52" value="Recherche titre" style="html=1;align=center;verticalAlign=top;rounded=1;absoluteArcSize=1;arcSize=10;dashed=0;" vertex="1" parent="IJsiVHuRIFzoJG3t3eIb-43">
          <mxGeometry x="90" y="60" width="140" height="40" as="geometry" />
        </mxCell>
        <mxCell id="IJsiVHuRIFzoJG3t3eIb-53" value="" style="rhombus;whiteSpace=wrap;html=1;" vertex="1" parent="IJsiVHuRIFzoJG3t3eIb-43">
          <mxGeometry x="140.00000000000023" y="140" width="40" height="40" as="geometry" />
        </mxCell>
        <mxCell id="IJsiVHuRIFzoJG3t3eIb-71" style="edgeStyle=orthogonalEdgeStyle;rounded=0;orthogonalLoop=1;jettySize=auto;html=1;exitX=0;exitY=0.5;exitDx=0;exitDy=0;" edge="1" parent="IJsiVHuRIFzoJG3t3eIb-43" source="IJsiVHuRIFzoJG3t3eIb-54">
          <mxGeometry relative="1" as="geometry">
            <mxPoint x="-140" y="260" as="targetPoint" />
          </mxGeometry>
        </mxCell>
        <mxCell id="IJsiVHuRIFzoJG3t3eIb-54" value="informe disponibilite" style="html=1;align=center;verticalAlign=top;rounded=1;absoluteArcSize=1;arcSize=10;dashed=0;" vertex="1" parent="IJsiVHuRIFzoJG3t3eIb-43">
          <mxGeometry x="15" y="240" width="140" height="40" as="geometry" />
        </mxCell>
        <mxCell id="IJsiVHuRIFzoJG3t3eIb-55" value="prix et nombre" style="html=1;align=center;verticalAlign=top;rounded=1;absoluteArcSize=1;arcSize=10;dashed=0;" vertex="1" parent="IJsiVHuRIFzoJG3t3eIb-43">
          <mxGeometry x="220" y="240" width="140" height="40" as="geometry" />
        </mxCell>
        <mxCell id="IJsiVHuRIFzoJG3t3eIb-74" style="edgeStyle=orthogonalEdgeStyle;rounded=0;orthogonalLoop=1;jettySize=auto;html=1;exitX=0;exitY=0.5;exitDx=0;exitDy=0;" edge="1" parent="IJsiVHuRIFzoJG3t3eIb-43" source="IJsiVHuRIFzoJG3t3eIb-57">
          <mxGeometry relative="1" as="geometry">
            <mxPoint x="-110" y="360" as="targetPoint" />
          </mxGeometry>
        </mxCell>
        <mxCell id="IJsiVHuRIFzoJG3t3eIb-57" value="Demande nombre d exmplaire" style="html=1;align=center;verticalAlign=top;rounded=1;absoluteArcSize=1;arcSize=10;dashed=0;" vertex="1" parent="IJsiVHuRIFzoJG3t3eIb-43">
          <mxGeometry x="90" y="340" width="190" height="40" as="geometry" />
        </mxCell>
        <mxCell id="IJsiVHuRIFzoJG3t3eIb-76" style="edgeStyle=orthogonalEdgeStyle;rounded=0;orthogonalLoop=1;jettySize=auto;html=1;exitX=0.5;exitY=1;exitDx=0;exitDy=0;" edge="1" parent="IJsiVHuRIFzoJG3t3eIb-43" source="IJsiVHuRIFzoJG3t3eIb-56">
          <mxGeometry relative="1" as="geometry">
            <mxPoint x="-200" y="520" as="targetPoint" />
            <Array as="points">
              <mxPoint x="160" y="500" />
              <mxPoint x="-199" y="500" />
            </Array>
          </mxGeometry>
        </mxCell>
        <mxCell id="IJsiVHuRIFzoJG3t3eIb-56" value="Demmande le nom et adre&lt;div&gt;sse dexpedition&lt;/div&gt;" style="html=1;align=center;verticalAlign=top;rounded=1;absoluteArcSize=1;arcSize=10;dashed=0;" vertex="1" parent="IJsiVHuRIFzoJG3t3eIb-43">
          <mxGeometry x="90" y="440" width="140" height="40" as="geometry" />
        </mxCell>
        <mxCell id="IJsiVHuRIFzoJG3t3eIb-81" style="edgeStyle=orthogonalEdgeStyle;rounded=0;orthogonalLoop=1;jettySize=auto;html=1;exitX=0;exitY=0.5;exitDx=0;exitDy=0;" edge="1" parent="IJsiVHuRIFzoJG3t3eIb-43" source="IJsiVHuRIFzoJG3t3eIb-58">
          <mxGeometry relative="1" as="geometry">
            <mxPoint x="80" y="640" as="targetPoint" />
          </mxGeometry>
        </mxCell>
        <mxCell id="IJsiVHuRIFzoJG3t3eIb-58" value="" style="rhombus;whiteSpace=wrap;html=1;" vertex="1" parent="IJsiVHuRIFzoJG3t3eIb-43">
          <mxGeometry x="160.00000000000023" y="560" width="40" height="40" as="geometry" />
        </mxCell>
        <mxCell id="IJsiVHuRIFzoJG3t3eIb-60" value="creer une commande expedie" style="html=1;align=center;verticalAlign=top;rounded=1;absoluteArcSize=1;arcSize=10;dashed=0;" vertex="1" parent="IJsiVHuRIFzoJG3t3eIb-43">
          <mxGeometry x="185" y="650" width="175" height="40" as="geometry" />
        </mxCell>
        <mxCell id="IJsiVHuRIFzoJG3t3eIb-93" style="edgeStyle=orthogonalEdgeStyle;rounded=0;orthogonalLoop=1;jettySize=auto;html=1;exitX=0;exitY=0.5;exitDx=0;exitDy=0;" edge="1" parent="IJsiVHuRIFzoJG3t3eIb-43" source="IJsiVHuRIFzoJG3t3eIb-59">
          <mxGeometry relative="1" as="geometry">
            <mxPoint x="-150" y="970" as="targetPoint" />
          </mxGeometry>
        </mxCell>
        <mxCell id="IJsiVHuRIFzoJG3t3eIb-59" value="Generer affichage" style="html=1;align=center;verticalAlign=top;rounded=1;absoluteArcSize=1;arcSize=10;dashed=0;" vertex="1" parent="IJsiVHuRIFzoJG3t3eIb-43">
          <mxGeometry x="20" y="950" width="110" height="40" as="geometry" />
        </mxCell>
        <mxCell id="IJsiVHuRIFzoJG3t3eIb-90" style="edgeStyle=orthogonalEdgeStyle;rounded=0;orthogonalLoop=1;jettySize=auto;html=1;exitX=0.5;exitY=1;exitDx=0;exitDy=0;entryX=0.5;entryY=0;entryDx=0;entryDy=0;" edge="1" parent="IJsiVHuRIFzoJG3t3eIb-43" source="IJsiVHuRIFzoJG3t3eIb-62" target="IJsiVHuRIFzoJG3t3eIb-65">
          <mxGeometry relative="1" as="geometry" />
        </mxCell>
        <mxCell id="IJsiVHuRIFzoJG3t3eIb-62" value="Mettre a jour linventaire" style="html=1;align=center;verticalAlign=top;rounded=1;absoluteArcSize=1;arcSize=10;dashed=0;" vertex="1" parent="IJsiVHuRIFzoJG3t3eIb-43">
          <mxGeometry x="90" y="800" width="140" height="40" as="geometry" />
        </mxCell>
        <mxCell id="IJsiVHuRIFzoJG3t3eIb-61" value="" style="whiteSpace=wrap;html=1;rounded=0;shadow=0;comic=0;labelBackgroundColor=none;strokeWidth=1;fillColor=#000000;fontFamily=Verdana;fontSize=12;align=center;rotation=0;" vertex="1" parent="IJsiVHuRIFzoJG3t3eIb-43">
          <mxGeometry x="161.5" y="750" width="147" height="10" as="geometry" />
        </mxCell>
        <mxCell id="IJsiVHuRIFzoJG3t3eIb-92" style="edgeStyle=orthogonalEdgeStyle;rounded=0;orthogonalLoop=1;jettySize=auto;html=1;exitX=0.5;exitY=1;exitDx=0;exitDy=0;entryX=1;entryY=0.5;entryDx=0;entryDy=0;" edge="1" parent="IJsiVHuRIFzoJG3t3eIb-43" source="IJsiVHuRIFzoJG3t3eIb-65" target="IJsiVHuRIFzoJG3t3eIb-59">
          <mxGeometry relative="1" as="geometry" />
        </mxCell>
        <mxCell id="IJsiVHuRIFzoJG3t3eIb-65" value="" style="whiteSpace=wrap;html=1;rounded=0;shadow=0;comic=0;labelBackgroundColor=none;strokeWidth=1;fillColor=#000000;fontFamily=Verdana;fontSize=12;align=center;rotation=0;" vertex="1" parent="IJsiVHuRIFzoJG3t3eIb-43">
          <mxGeometry x="86.5" y="880" width="147" height="10" as="geometry" />
        </mxCell>
        <mxCell id="IJsiVHuRIFzoJG3t3eIb-70" style="edgeStyle=orthogonalEdgeStyle;rounded=0;orthogonalLoop=1;jettySize=auto;html=1;exitX=0;exitY=0.5;exitDx=0;exitDy=0;entryX=0.443;entryY=-0.037;entryDx=0;entryDy=0;entryPerimeter=0;" edge="1" parent="IJsiVHuRIFzoJG3t3eIb-43" source="IJsiVHuRIFzoJG3t3eIb-53" target="IJsiVHuRIFzoJG3t3eIb-54">
          <mxGeometry relative="1" as="geometry" />
        </mxCell>
        <mxCell id="IJsiVHuRIFzoJG3t3eIb-72" style="edgeStyle=orthogonalEdgeStyle;rounded=0;orthogonalLoop=1;jettySize=auto;html=1;exitX=1;exitY=0.5;exitDx=0;exitDy=0;entryX=0.668;entryY=-0.062;entryDx=0;entryDy=0;entryPerimeter=0;" edge="1" parent="IJsiVHuRIFzoJG3t3eIb-43" source="IJsiVHuRIFzoJG3t3eIb-53" target="IJsiVHuRIFzoJG3t3eIb-55">
          <mxGeometry relative="1" as="geometry" />
        </mxCell>
        <mxCell id="IJsiVHuRIFzoJG3t3eIb-73" style="edgeStyle=orthogonalEdgeStyle;rounded=0;orthogonalLoop=1;jettySize=auto;html=1;exitX=0.5;exitY=1;exitDx=0;exitDy=0;entryX=0.589;entryY=0.038;entryDx=0;entryDy=0;entryPerimeter=0;" edge="1" parent="IJsiVHuRIFzoJG3t3eIb-43" source="IJsiVHuRIFzoJG3t3eIb-55" target="IJsiVHuRIFzoJG3t3eIb-57">
          <mxGeometry relative="1" as="geometry" />
        </mxCell>
        <mxCell id="IJsiVHuRIFzoJG3t3eIb-87" style="edgeStyle=orthogonalEdgeStyle;rounded=0;orthogonalLoop=1;jettySize=auto;html=1;exitX=0;exitY=0.5;exitDx=0;exitDy=0;" edge="1" parent="IJsiVHuRIFzoJG3t3eIb-43" source="IJsiVHuRIFzoJG3t3eIb-78">
          <mxGeometry relative="1" as="geometry">
            <mxPoint x="-160" y="670" as="targetPoint" />
          </mxGeometry>
        </mxCell>
        <mxCell id="IJsiVHuRIFzoJG3t3eIb-78" value="informe du manque de stock" style="html=1;align=center;verticalAlign=top;rounded=1;absoluteArcSize=1;arcSize=10;dashed=0;" vertex="1" parent="IJsiVHuRIFzoJG3t3eIb-43">
          <mxGeometry x="15" y="650" width="140" height="40" as="geometry" />
        </mxCell>
        <mxCell id="IJsiVHuRIFzoJG3t3eIb-82" style="edgeStyle=orthogonalEdgeStyle;rounded=0;orthogonalLoop=1;jettySize=auto;html=1;exitX=1;exitY=0.5;exitDx=0;exitDy=0;entryX=0.675;entryY=-0.037;entryDx=0;entryDy=0;entryPerimeter=0;" edge="1" parent="IJsiVHuRIFzoJG3t3eIb-43" source="IJsiVHuRIFzoJG3t3eIb-58" target="IJsiVHuRIFzoJG3t3eIb-60">
          <mxGeometry relative="1" as="geometry" />
        </mxCell>
        <mxCell id="IJsiVHuRIFzoJG3t3eIb-84" style="edgeStyle=orthogonalEdgeStyle;rounded=0;orthogonalLoop=1;jettySize=auto;html=1;exitX=0.5;exitY=1;exitDx=0;exitDy=0;entryX=0.639;entryY=0.1;entryDx=0;entryDy=0;entryPerimeter=0;" edge="1" parent="IJsiVHuRIFzoJG3t3eIb-43" source="IJsiVHuRIFzoJG3t3eIb-60" target="IJsiVHuRIFzoJG3t3eIb-61">
          <mxGeometry relative="1" as="geometry" />
        </mxCell>
        <mxCell id="IJsiVHuRIFzoJG3t3eIb-88" style="edgeStyle=orthogonalEdgeStyle;rounded=0;orthogonalLoop=1;jettySize=auto;html=1;exitX=0.25;exitY=1;exitDx=0;exitDy=0;entryX=0.804;entryY=-0.062;entryDx=0;entryDy=0;entryPerimeter=0;" edge="1" parent="IJsiVHuRIFzoJG3t3eIb-43" source="IJsiVHuRIFzoJG3t3eIb-61" target="IJsiVHuRIFzoJG3t3eIb-62">
          <mxGeometry relative="1" as="geometry" />
        </mxCell>
        <mxCell id="IJsiVHuRIFzoJG3t3eIb-96" value="Non" style="text;html=1;align=center;verticalAlign=middle;whiteSpace=wrap;rounded=0;" vertex="1" parent="IJsiVHuRIFzoJG3t3eIb-43">
          <mxGeometry x="95" y="550" width="60" height="30" as="geometry" />
        </mxCell>
        <mxCell id="IJsiVHuRIFzoJG3t3eIb-97" value="oui" style="text;html=1;align=center;verticalAlign=middle;whiteSpace=wrap;rounded=0;" vertex="1" parent="IJsiVHuRIFzoJG3t3eIb-43">
          <mxGeometry x="200" y="550" width="60" height="30" as="geometry" />
        </mxCell>
        <mxCell id="IJsiVHuRIFzoJG3t3eIb-99" value="Livres necessaire sont en stock&amp;nbsp;" style="text;html=1;align=center;verticalAlign=middle;whiteSpace=wrap;rounded=0;" vertex="1" parent="IJsiVHuRIFzoJG3t3eIb-43">
          <mxGeometry x="233.5" y="500" width="106.5" height="40" as="geometry" />
        </mxCell>
        <mxCell id="IJsiVHuRIFzoJG3t3eIb-100" value="Non" style="text;html=1;align=center;verticalAlign=middle;whiteSpace=wrap;rounded=0;" vertex="1" parent="IJsiVHuRIFzoJG3t3eIb-43">
          <mxGeometry x="90" y="130" width="60" height="30" as="geometry" />
        </mxCell>
        <mxCell id="IJsiVHuRIFzoJG3t3eIb-101" value="Oui" style="text;html=1;align=center;verticalAlign=middle;whiteSpace=wrap;rounded=0;" vertex="1" parent="IJsiVHuRIFzoJG3t3eIb-43">
          <mxGeometry x="210" y="130" width="60" height="30" as="geometry" />
        </mxCell>
        <mxCell id="IJsiVHuRIFzoJG3t3eIb-102" value="Titre est dans catalogue" style="text;html=1;align=center;verticalAlign=middle;whiteSpace=wrap;rounded=0;" vertex="1" parent="IJsiVHuRIFzoJG3t3eIb-43">
          <mxGeometry x="210" y="110" width="150" height="20" as="geometry" />
        </mxCell>
        <mxCell id="IJsiVHuRIFzoJG3t3eIb-44" value="swimlane" style="swimlane;html=1;startSize=20;" vertex="1" parent="1">
          <mxGeometry x="-50" y="-660" width="310" height="1020" as="geometry" />
        </mxCell>
        <mxCell id="IJsiVHuRIFzoJG3t3eIb-67" style="edgeStyle=orthogonalEdgeStyle;rounded=0;orthogonalLoop=1;jettySize=auto;html=1;exitX=1;exitY=0.5;exitDx=0;exitDy=0;" edge="1" parent="IJsiVHuRIFzoJG3t3eIb-44" source="IJsiVHuRIFzoJG3t3eIb-45" target="IJsiVHuRIFzoJG3t3eIb-46">
          <mxGeometry relative="1" as="geometry" />
        </mxCell>
        <mxCell id="IJsiVHuRIFzoJG3t3eIb-45" value="" style="ellipse;fillColor=#000000;strokeColor=none;" vertex="1" parent="IJsiVHuRIFzoJG3t3eIb-44">
          <mxGeometry x="20" y="60" width="30" height="30" as="geometry" />
        </mxCell>
        <mxCell id="IJsiVHuRIFzoJG3t3eIb-68" style="edgeStyle=orthogonalEdgeStyle;rounded=0;orthogonalLoop=1;jettySize=auto;html=1;exitX=1;exitY=0.5;exitDx=0;exitDy=0;" edge="1" parent="IJsiVHuRIFzoJG3t3eIb-44" source="IJsiVHuRIFzoJG3t3eIb-46">
          <mxGeometry relative="1" as="geometry">
            <mxPoint x="400" y="75" as="targetPoint" />
          </mxGeometry>
        </mxCell>
        <mxCell id="IJsiVHuRIFzoJG3t3eIb-46" value="Entre titre du livre 3" style="html=1;align=center;verticalAlign=top;rounded=1;absoluteArcSize=1;arcSize=10;dashed=0;" vertex="1" parent="IJsiVHuRIFzoJG3t3eIb-44">
          <mxGeometry x="100" y="55" width="140" height="40" as="geometry" />
        </mxCell>
        <mxCell id="IJsiVHuRIFzoJG3t3eIb-47" value="" style="ellipse;html=1;shape=endState;fillColor=#000000;strokeColor=#000000;" vertex="1" parent="IJsiVHuRIFzoJG3t3eIb-44">
          <mxGeometry x="120" y="240" width="30" height="30" as="geometry" />
        </mxCell>
        <mxCell id="IJsiVHuRIFzoJG3t3eIb-48" value="Entre le nombre de copies" style="html=1;align=center;verticalAlign=top;rounded=1;absoluteArcSize=1;arcSize=10;dashed=0;" vertex="1" parent="IJsiVHuRIFzoJG3t3eIb-44">
          <mxGeometry x="60" y="340" width="140" height="40" as="geometry" />
        </mxCell>
        <mxCell id="IJsiVHuRIFzoJG3t3eIb-49" value="Entree le nom et adresse" style="html=1;align=center;verticalAlign=top;rounded=1;absoluteArcSize=1;arcSize=10;dashed=0;" vertex="1" parent="IJsiVHuRIFzoJG3t3eIb-44">
          <mxGeometry x="60" y="520" width="170" height="40" as="geometry" />
        </mxCell>
        <mxCell id="IJsiVHuRIFzoJG3t3eIb-50" value="" style="ellipse;html=1;shape=endState;fillColor=#000000;strokeColor=#000000;" vertex="1" parent="IJsiVHuRIFzoJG3t3eIb-44">
          <mxGeometry x="120" y="660" width="30" height="30" as="geometry" />
        </mxCell>
        <mxCell id="IJsiVHuRIFzoJG3t3eIb-51" value="" style="ellipse;html=1;shape=endState;fillColor=#000000;strokeColor=#000000;" vertex="1" parent="IJsiVHuRIFzoJG3t3eIb-44">
          <mxGeometry x="130" y="960" width="30" height="30" as="geometry" />
        </mxCell>
        <mxCell id="IJsiVHuRIFzoJG3t3eIb-77" style="edgeStyle=orthogonalEdgeStyle;rounded=0;orthogonalLoop=1;jettySize=auto;html=1;exitX=0.5;exitY=1;exitDx=0;exitDy=0;entryX=0;entryY=0.5;entryDx=0;entryDy=0;" edge="1" parent="1" source="IJsiVHuRIFzoJG3t3eIb-48" target="IJsiVHuRIFzoJG3t3eIb-56">
          <mxGeometry relative="1" as="geometry" />
        </mxCell>
        <mxCell id="IJsiVHuRIFzoJG3t3eIb-80" style="edgeStyle=orthogonalEdgeStyle;rounded=0;orthogonalLoop=1;jettySize=auto;html=1;exitX=1;exitY=0.5;exitDx=0;exitDy=0;entryX=0.5;entryY=0;entryDx=0;entryDy=0;" edge="1" parent="1" source="IJsiVHuRIFzoJG3t3eIb-49" target="IJsiVHuRIFzoJG3t3eIb-58">
          <mxGeometry relative="1" as="geometry" />
        </mxCell>
        <mxCell id="IJsiVHuRIFzoJG3t3eIb-94" style="edgeStyle=orthogonalEdgeStyle;rounded=0;orthogonalLoop=1;jettySize=auto;html=1;exitX=0.5;exitY=1;exitDx=0;exitDy=0;entryX=1;entryY=0.5;entryDx=0;entryDy=0;" edge="1" parent="1" source="IJsiVHuRIFzoJG3t3eIb-66" target="IJsiVHuRIFzoJG3t3eIb-65">
          <mxGeometry relative="1" as="geometry" />
        </mxCell>
        <mxCell id="IJsiVHuRIFzoJG3t3eIb-95" style="edgeStyle=orthogonalEdgeStyle;rounded=0;orthogonalLoop=1;jettySize=auto;html=1;exitX=0.75;exitY=1;exitDx=0;exitDy=0;entryX=0;entryY=0.5;entryDx=0;entryDy=0;" edge="1" parent="1" source="IJsiVHuRIFzoJG3t3eIb-61" target="IJsiVHuRIFzoJG3t3eIb-66">
          <mxGeometry relative="1" as="geometry" />
        </mxCell>
      </root>
    </mxGraphModel>
  </diagram>
</mxfile>
